<svg width="0" height="0" class="hidden">
  <symbol viewBox="0 0 28 30" fill="none" xmlns="http://www.w3.org/2000/svg" id="adv-armchair">
    <path d="M24.729 3.552A5.916 5.916 0 0 0 19.3 0H7.971a5.93 5.93 0 0 0-5.427 3.552A2.96 2.96 0 0 0 .018 6.805L1.476 19.97a2.953 2.953 0 0 0 1.253 2.104l-.58 5.841a1.891 1.891 0 0 0 .688 1.657 1.892 1.892 0 0 0 1.761.34 1.907 1.907 0 0 0 1.216-1.153l2.272-6.158h11.1l2.273 6.158a1.908 1.908 0 0 0 1.78 1.24c.43 0 .854-.147 1.197-.427a1.891 1.891 0 0 0 .689-1.657l-.58-5.841a2.951 2.951 0 0 0 1.252-2.104l1.458-13.166a2.96 2.96 0 0 0-2.526-3.253zM4.868 3.145a4.17 4.17 0 0 1 3.104-1.387h11.33a4.171 4.171 0 0 1 3.623 2.111 2.938 2.938 0 0 0-1.548 2.284l-.037.326-.56 5.065H6.493l-.56-5.064-.036-.325A2.939 2.939 0 0 0 4.348 3.87c.146-.257.32-.5.52-.724zm15.716 10.157l-.374 3.386H7.063l-.375-3.386h13.896zm-16.42 14.85a.139.139 0 0 1-.088.083.131.131 0 0 1-.128-.024.131.131 0 0 1-.05-.121l.545-5.488h1.77l-2.048 5.55zm19.161.059a.131.131 0 0 1-.128.024.139.139 0 0 1-.089-.084l-2.048-5.549h1.77l.545 5.488a.13.13 0 0 1-.05.12zm2.183-21.6l-1.459 13.166a1.198 1.198 0 0 1-1.192 1.067H4.416a1.198 1.198 0 0 1-1.193-1.067L1.765 6.611a1.201 1.201 0 0 1 1.942-1.069c.25.2.407.487.442.805l1.254 11.316a.878.878 0 0 0 .873.783h14.72a.879.879 0 0 0 .874-.783l1.253-11.316c.036-.318.193-.604.443-.804a1.192 1.192 0 0 1 .881-.256 1.2 1.2 0 0 1 1.06 1.324z"
      fill="#000"></path>
  </symbol>
  <symbol viewBox="0 0 29 30" fill="none" xmlns="http://www.w3.org/2000/svg" id="adv-discount">
    <path d="M27.398 15.389a.88.88 0 0 1 0-.777l1.119-2.29a2.604 2.604 0 0 0-1.124-3.458l-2.25-1.194a.88.88 0 0 1-.457-.629l-.44-2.51a2.604 2.604 0 0 0-2.942-2.136l-2.523.356a.879.879 0 0 1-.739-.24L16.212.74a2.604 2.604 0 0 0-3.637 0l-1.831 1.77a.88.88 0 0 1-.74.24l-2.522-.356A2.604 2.604 0 0 0 4.54 4.532l-.44 2.51a.88.88 0 0 1-.457.628l-2.25 1.194a2.604 2.604 0 0 0-1.124 3.459l1.119 2.289a.88.88 0 0 1 0 .777L.269 17.678a2.604 2.604 0 0 0 1.124 3.458l2.25 1.194a.88.88 0 0 1 .457.629l.44 2.51a2.603 2.603 0 0 0 2.942 2.136l2.523-.356a.879.879 0 0 1 .739.24l1.83 1.771a2.607 2.607 0 0 0 3.637 0l1.831-1.771a.88.88 0 0 1 .74-.24l2.522.357a2.604 2.604 0 0 0 2.942-2.138l.44-2.51a.88.88 0 0 1 .457-.628l2.25-1.194a2.604 2.604 0 0 0 1.124-3.459l-1.119-2.288zm-.816 4.218l-2.25 1.195a2.599 2.599 0 0 0-1.35 1.858l-.44 2.51a.881.881 0 0 1-.996.722l-2.522-.357a2.598 2.598 0 0 0-2.185.71l-1.83 1.771a.881.881 0 0 1-1.231 0l-1.831-1.77a2.596 2.596 0 0 0-2.185-.71l-2.522.356a.881.881 0 0 1-.996-.723l-.44-2.51a2.598 2.598 0 0 0-1.35-1.857l-2.25-1.195a.881.881 0 0 1-.38-1.17l1.118-2.289a2.598 2.598 0 0 0 0-2.296l-1.119-2.29a.881.881 0 0 1 .38-1.17L4.455 9.2a2.598 2.598 0 0 0 1.35-1.859l.44-2.51a.881.881 0 0 1 .996-.722l2.522.357c.804.113 1.6-.145 2.185-.71l1.83-1.772a.881.881 0 0 1 1.231 0l1.831 1.772a2.6 2.6 0 0 0 2.184.71l2.523-.357a.881.881 0 0 1 .995.723l.44 2.51c.141.8.633 1.477 1.35 1.858l2.251 1.194a.881.881 0 0 1 .38 1.17l-1.119 2.289a2.598 2.598 0 0 0 0 2.296l1.12 2.29a.881.881 0 0 1-.38 1.17z"
      fill="#000"></path>
    <path d="M20.714 8.679a.865.865 0 0 0-1.223 0L8.07 20.098a.865.865 0 0 0 1.224 1.223l11.42-11.419a.865.865 0 0 0 0-1.223zm-9.782-1.465a3.176 3.176 0 0 0-3.172 3.172 3.176 3.176 0 0 0 3.172 3.172 3.176 3.176 0 0 0 3.173-3.172 3.176 3.176 0 0 0-3.173-3.172zm0 4.614a1.443 1.443 0 0 1-1.441-1.442c0-.795.646-1.442 1.441-1.442s1.442.647 1.442 1.442c0 .795-.647 1.442-1.442 1.442zm6.921 4.614a3.176 3.176 0 0 0-3.172 3.172 3.176 3.176 0 0 0 3.172 3.172 3.176 3.176 0 0 0 3.173-3.172 3.176 3.176 0 0 0-3.173-3.172zm0 4.614a1.444 1.444 0 0 1-1.442-1.442c0-.795.647-1.442 1.442-1.442.795 0 1.442.647 1.442 1.442 0 .795-.647 1.442-1.442 1.442z"
      fill="#000"></path>
  </symbol>
  <symbol viewBox="0 0 30 30" fill="none" xmlns="http://www.w3.org/2000/svg" id="adv-paper-plane">
    <path d="M29.704.077a.586.586 0 0 0-.588.005L18.378 6.43a.586.586 0 1 0 .597 1.009l7.704-4.556-14.35 14.89-7.137-2.184 9.314-5.508a.586.586 0 0 0-.597-1.009L3.452 15.257a.586.586 0 0 0 .127 1.065l8.523 2.608 3.76 6.844a.583.583 0 0 0 .923.137l4.325-4.226 8.133 2.489a.59.59 0 0 0 .52-.09.586.586 0 0 0 .237-.47V.585a.586.586 0 0 0-.296-.509zm-13.81 19.214a.586.586 0 0 0-.104.334v3.584l-2.567-4.674 11.362-11.79-8.69 12.546zm1.068 4.81v-3.684l2.87.878-2.87 2.805zm11.866-1.28L17.314 19.3 28.828 2.678v20.143z"
      fill="#000"></path>
    <path d="M9.634 20.366a.586.586 0 0 0-.829 0l-5.47 5.47a.586.586 0 0 0 .83.828l5.47-5.47a.586.586 0 0 0 0-.828zm-7.286 7.286a.586.586 0 0 0-.829 0L.172 29a.586.586 0 0 0 .828.828l1.348-1.347a.586.586 0 0 0 0-.829zm6.01 1.313a.59.59 0 0 0-1 .414.59.59 0 0 0 .586.586.59.59 0 0 0 .586-.585.59.59 0 0 0-.172-.415zm4.36-4.359a.586.586 0 0 0-.829 0l-2.897 2.897a.586.586 0 0 0 .829.828l2.897-2.897a.586.586 0 0 0 0-.828zm9.999-.223a.586.586 0 0 0-.829 0l-2.905 2.905a.586.586 0 1 0 .829.829l2.905-2.905a.586.586 0 0 0 0-.829zM16.611 7.987a.59.59 0 0 0-.414-.172.59.59 0 0 0-.586.587.589.589 0 0 0 .586.585.588.588 0 0 0 .586-.585.59.59 0 0 0-.172-.415z"
      fill="#000"></path>
  </symbol>
  <symbol viewBox="0 0 27 30" fill="none" xmlns="http://www.w3.org/2000/svg" id="adv-quality">
    <path d="M26.275 14.607L22.76 7.576c-.17-.3-.41-.486-.787-.486H4.395c-.367 0-.613.182-.786.486l-3.516 7.03a.874.874 0 0 0 .124.971l12.305 14.121a.879.879 0 0 0 1.325 0l12.305-14.12a.874.874 0 0 0 .123-.971zm-5.724-5.76l-2.243 4.488-3.366-4.487h5.61zM16.7 14.122H9.669l3.515-4.687L16.7 14.12zm-5.273-5.273L8.06 13.335 5.817 8.848h5.61zM4.395 9.934l2.094 4.187H2.302l2.093-4.187zm-1.583 5.945H7.33l4.333 10.159-8.851-10.16zm10.372 9.244L9.242 15.88h7.885l-3.943 9.244zm1.521.915l4.333-10.16h4.52l-8.853 10.16zM19.88 14.12l2.093-4.187 2.094 4.187H19.88zM13.184 0a.879.879 0 0 0-.879.879v1.816a.879.879 0 0 0 1.758 0V.88a.879.879 0 0 0-.879-.88zM9.455 3.876L8.213 2.633A.879.879 0 1 0 6.97 3.876l1.243 1.243a.879.879 0 1 0 1.242-1.243zM19.4 2.633a.879.879 0 0 0-1.244 0l-1.243 1.243a.879.879 0 0 0 1.243 1.243L19.4 3.876a.879.879 0 0 0 0-1.243z"
      fill="#000"></path>
  </symbol>
</svg>