<svg width="0" height="0" class="hidden">
  <symbol viewBox="0 0 35 38" fill="none" xmlns="http://www.w3.org/2000/svg" id="armchair-2">
    <path d="M30.766 12.622V5.525c0-4.08-2.857-5.525-5.543-5.525H9.275C6.59 0 3.732 1.445 3.732 5.525v7.097C1.771 13.132.321 14.875.321 17v11.39c0 3.357 2.26 4.675 4.477 4.802v2.89c0 .85.682 1.53 1.535 1.53h1.578c.853 0 1.535-.68 1.535-1.53v-2.89h15.649v2.89c0 .85.682 1.53 1.535 1.53h1.578c.852 0 1.535-.68 1.535-1.53v-2.89c3.283-.17 4.477-2.55 4.477-4.802V16.957c-.085-2.082-1.535-3.867-3.454-4.335zM5.267 5.525c0-3.485 2.516-4.038 4.008-4.038h15.948c1.492 0 4.008.51 4.008 3.995v6.97c-2.303.213-4.136 2.125-4.136 4.505v1.063H9.403v-1.063c0-2.38-1.833-4.292-4.136-4.505V5.525zM25.052 19.55v5.27H9.403v-5.27h15.65zM7.911 36.082H6.333v-2.89h1.578v2.89zm20.254 0h-1.578v-2.89h1.578v2.89zm4.52-7.692h-.043c0 1.487-.554 3.314-3.326 3.314H5.182c-1.493 0-3.326-.552-3.326-3.314V16.957c0-1.657 1.364-3.017 3.027-3.017s3.028 1.36 3.028 3.017v8.628c0 .425.341.765.767.765h17.184c.427 0 .768-.34.768-.765v-8.628c0-1.657 1.364-3.017 3.027-3.017s3.028 1.36 3.028 3.017V28.39z"
      fill="#000" opacity=".3"></path>
  </symbol>
  <symbol viewBox="0 0 46 32" fill="none" xmlns="http://www.w3.org/2000/svg" id="bench">
    <g opacity=".3" fill="#000">
      <path d="M45.873 21.436a.738.738 0 0 0-.002-.042l-.003-.027-.006-.037-.007-.032-.008-.03c-.003-.013-.008-.025-.012-.038l-.009-.024a.507.507 0 0 0-.017-.04l-.006-.014-2.969-5.937a.672.672 0 0 0-.6-.372h-3.782v-3.109h3.781a.672.672 0 0 0 .672-.672V.672c0-.371-.3-.672-.672-.672H11.011a.672.672 0 1 0 0 1.344h30.55v9.046H4.313V1.344h3.92a.672.672 0 1 0 0-1.344H3.642a.672.672 0 0 0-.672.672v10.39c0 .371.3.672.672.672h3.78v3.109h-3.78a.671.671 0 0 0-.601.372L.07 21.152l-.006.014a1.974 1.974 0 0 0-.027.064.642.642 0 0 0-.035.164L0 21.436l-.001.016v2.97c0 .37.3.671.672.671h5.265v4.593h-.812a.672.672 0 1 0 0 1.344h5.938a.672.672 0 0 0 0-1.344h-.812v-4.593h25.374v4.593h-.812a.672.672 0 1 0 0 1.344h5.937a.672.672 0 1 0 0-1.344h-.813v-4.593h5.266c.371 0 .672-.3.672-.672v-2.969l-.001-.016zm-8.765-6.593h-1.624v-3.109h1.624v3.11zm-25.374 0v-3.109H34.14v3.11l-22.406-.001zm-2.969-3.109h1.625v3.109H8.765v-3.109zm-4.709 4.453h37.762l2.296 4.593H1.76l2.297-4.593zm4.85 13.499H7.28v-4.593h1.625v4.593zm29.687 0h-1.625v-4.593h1.625v4.593zm5.937-5.937H1.344v-1.625H44.53v1.625z"></path>
      <path d="M7.421 5.867a2.16 2.16 0 0 0 2.157 2.156 2.159 2.159 0 0 0 2.156-2.156A2.159 2.159 0 0 0 9.578 3.71 2.159 2.159 0 0 0 7.42 5.867zm2.157-.813a.813.813 0 1 1-.002 1.627.813.813 0 0 1 .002-1.627zm28.874.813a2.159 2.159 0 0 0-2.156-2.156 2.159 2.159 0 0 0-2.156 2.156c0 1.189.967 2.156 2.156 2.156a2.159 2.159 0 0 0 2.156-2.156zm-2.968 0a.813.813 0 0 1 1.624 0 .813.813 0 0 1-.812.812.813.813 0 0 1-.812-.812z"></path>
    </g>
  </symbol>
  <symbol viewBox="0 0 37 37" fill="none" xmlns="http://www.w3.org/2000/svg" id="chair-4">
    <path d="M26.738 15.454c-.544.094-1.085.175-1.615.246l-.473-4.935c3.17-2.027 4.111-5.585 4.363-8.022a2.374 2.374 0 0 0-.845-2.06 2.92 2.92 0 0 0-2.642-.58c-2.282.59-4.623.921-6.979.987a31.286 31.286 0 0 1-6.979-.988 2.917 2.917 0 0 0-2.642.583 2.373 2.373 0 0 0-.846 2.058c.251 2.437 1.191 5.994 4.36 8.021l-.468 4.937a45.132 45.132 0 0 1-1.615-.247 2.47 2.47 0 0 0-2.444.987 2.376 2.376 0 0 0-.18 2.522 7.47 7.47 0 0 0 3.328 3.003L8.314 35.12a1.56 1.56 0 0 0 3.017.782l2.203-6.924h10.027l2.202 6.922a1.56 1.56 0 0 0 3.017-.785l-2.744-13.152a7.468 7.468 0 0 0 3.329-3.004 2.377 2.377 0 0 0-.181-2.521 2.471 2.471 0 0 0-2.447-.984zm-2.836.396c-.424.046-.833.088-1.227.123l-.393-4.139a9.767 9.767 0 0 0 1.196-.436l.424 4.452zm-5.355-3.517a14.3 14.3 0 0 0 2.522-.216l.374 3.949c-1.71.113-2.874.117-2.897.117-.023 0-1.186-.004-2.898-.117l.375-3.949c.833.147 1.678.22 2.524.216zm-9.24-9.716a1.152 1.152 0 0 1 .425-.997c.298-.25.676-.387 1.066-.383.155.001.31.022.46.061a31.91 31.91 0 0 0 7.29 1.024 31.911 31.911 0 0 0 7.289-1.024 1.692 1.692 0 0 1 1.529.325c.297.241.456.615.422.997-.4 3.867-2.328 8.48-9.24 8.48a10.112 10.112 0 0 1-5.175-1.22c-.01-.004-.016-.01-.024-.015-2.785-1.633-3.77-4.611-4.043-7.248zm4.312 8.779a9.79 9.79 0 0 0 1.196.436l-.393 4.138a49.114 49.114 0 0 1-1.227-.123l.424-4.451zM10.155 35.53a.326.326 0 0 1-.563.109.327.327 0 0 1-.071-.273l2.687-12.88c.618.25 1.249.468 1.89.652L10.155 35.53zM21.8 23.444l.583 1.835h-7.672l.584-1.835c2.144.453 4.36.453 6.505 0zm-7.876 4.3l.392-1.232h8.46l.392 1.233h-9.244zm13.648 7.618a.33.33 0 0 1-.32.397.326.326 0 0 1-.313-.23l-3.942-12.391c.64-.185 1.271-.403 1.89-.653l2.685 12.877zm.7-16.98c-.813 1.536-2.813 2.79-5.783 3.625a14.553 14.553 0 0 1-7.884 0c-2.97-.836-4.97-2.089-5.783-3.625-.21-.39-.176-.866.09-1.22.279-.39.76-.583 1.232-.493 2.778.463 5.587.713 8.403.747a55.074 55.074 0 0 0 8.401-.747c.472-.09.953.102 1.233.493.266.354.302.83.091 1.22z"
      fill="#000" opacity=".3"></path>
  </symbol>
  <symbol viewBox="0 0 53 38" fill="none" xmlns="http://www.w3.org/2000/svg" id="couch">
    <path d="M49.603 10.258h-1.715V4.274A4.286 4.286 0 0 0 43.599 0H29.877a4.277 4.277 0 0 0-3.43 1.736A4.277 4.277 0 0 0 23.015 0H9.294a4.286 4.286 0 0 0-4.289 4.274v5.984H3.29a2.569 2.569 0 0 0-2.573 2.564v18.806c0 .472.384.855.858.855h6.003v3.42c0 .471.384.854.858.854h3.43a.856.856 0 0 0 .858-.855v-3.419H40.17v4.274c0 .472.384.855.858.855h3.43a.856.856 0 0 0 .858-.855v-4.274h6.003a.856.856 0 0 0 .858-.855V12.822a2.569 2.569 0 0 0-2.573-2.564zM27.304 4.274a2.569 2.569 0 0 1 2.573-2.564H43.6a2.569 2.569 0 0 1 2.573 2.564v5.984a2.569 2.569 0 0 0-2.573 2.564v4.274H27.304V4.274zm-20.583 0A2.569 2.569 0 0 1 9.294 1.71h13.722a2.569 2.569 0 0 1 2.573 2.564v12.822H9.294v-4.274a2.569 2.569 0 0 0-2.573-2.564V4.274zm.86 26.5H2.432V12.821c0-.472.384-.855.858-.855h3.43c.474 0 .858.383.858.855v4.42c-.029.01-.055.026-.086.037-.048.02-.093.041-.14.063a2.59 2.59 0 0 0-.276.15c-.042.025-.085.05-.124.079-.101.071-.197.15-.287.236-.019.018-.04.033-.058.051-.105.106-.2.22-.286.342-.023.034-.043.072-.065.107a2.537 2.537 0 0 0-.217.431c-.039.101-.07.204-.096.309-.012.047-.026.092-.035.14-.03.156-.045.315-.045.474v3.42a2.5 2.5 0 0 0 .048.47c.009.048.022.093.033.14a2.671 2.671 0 0 0 .157.45c.046.1.098.198.157.29.023.036.042.073.065.107.086.122.181.237.286.342.018.018.04.034.058.052.09.085.186.164.288.236.04.028.085.053.124.079a2.746 2.746 0 0 0 .416.211c.028.012.054.027.086.038v5.277zm-.003-7.694v-3.42c0-.471.384-.854.858-.854h17.153v5.129H8.436a.856.856 0 0 1-.858-.855zm3.43 11.968H9.295v-2.565h1.715v2.565zm32.591.854h-1.715v-3.419H43.6v3.42zm0-5.129H9.294v-5.128h34.305v5.128zm.858-6.838H27.304v-5.129h17.153c.474 0 .858.383.858.855v3.42a.856.856 0 0 1-.858.854zm.858 6.838v-5.275c.029-.01.055-.025.086-.036a2.627 2.627 0 0 0 .416-.212c.041-.026.085-.052.124-.08.101-.072.197-.15.287-.236.019-.018.04-.033.058-.051.105-.106.2-.22.286-.342.023-.034.043-.072.065-.107a2.553 2.553 0 0 0 .217-.433c.04-.1.071-.203.096-.307.012-.047.026-.092.035-.14a2.51 2.51 0 0 0 .045-.474v-3.42a2.491 2.491 0 0 0-.048-.47c-.009-.048-.022-.093-.034-.14a2.383 2.383 0 0 0-.156-.452 2.6 2.6 0 0 0-.157-.289c-.023-.035-.042-.072-.066-.107a2.622 2.622 0 0 0-.285-.342c-.018-.017-.04-.033-.058-.05a2.607 2.607 0 0 0-.288-.237c-.04-.029-.086-.053-.124-.08a2.627 2.627 0 0 0-.276-.149c-.047-.021-.092-.043-.14-.062-.028-.011-.054-.027-.086-.037v-4.423c0-.472.384-.855.858-.855h3.43c.474 0 .858.383.858.855l.003 17.951h-5.146z"
      fill="#000" opacity=".3"></path>
  </symbol>
  <symbol viewBox="0 0 24 17" fill="none" xmlns="http://www.w3.org/2000/svg" id="email-2">
    <path d="M20.436 0H2.713A2.716 2.716 0 0 0 0 2.713v11.574A2.716 2.716 0 0 0 2.713 17h17.723a2.716 2.716 0 0 0 2.713-2.713V2.713A2.716 2.716 0 0 0 20.436 0zm.904 14.287a.905.905 0 0 1-.904.904H2.713a.905.905 0 0 1-.904-.904V2.713c0-.499.405-.904.904-.904h17.723c.499 0 .904.405.904.904v11.574z"
      fill="#000"></path>
    <path d="M21.187 1.127l-9.613 7.15-9.612-7.15L.882 2.58l10.693 7.952L22.266 2.58l-1.08-1.452z" fill="#000"></path>
  </symbol>
  <symbol viewBox="0 0 37 37" fill="none" xmlns="http://www.w3.org/2000/svg" id="greek-column">
    <g clip-path="url(#clip0)" opacity=".3">
      <path d="M4.642 9.6C1.966 9.813-.23 12.157.02 14.91c.215 2.364 2.305 4.304 4.75 4.044 2.05-.217 3.733-2.054 3.46-4.192-.22-1.737-1.807-3.164-3.64-2.873-1.423.227-2.599 1.572-2.274 3.102.117.554.436 1.035.889 1.361.453.327 1.085.487 1.7.29.404-.128.726-.385.944-.756.218-.37.289-.947-.003-1.405-.235-.37-.45-.443-.79-.5a.88.88 0 0 0-.658.125c-.252.164-.385.503-.385.743a.685.685 0 0 0 .197.49.636.636 0 0 1-.205-.098.953.953 0 0 1-.35-.535c-.145-.683.443-1.351 1.15-1.464 1.007-.16 1.937.678 2.067 1.693.168 1.325-.924 2.516-2.247 2.657-1.64.174-3.092-1.174-3.24-2.806-.178-1.954 1.426-3.666 3.367-3.82.017-.002.035-.002.052-.003h27.395l.051.003c1.94.154 3.545 1.866 3.368 3.82-.149 1.632-1.6 2.98-3.241 2.806-1.323-.14-2.415-1.332-2.247-2.657.13-1.015 1.06-1.853 2.067-1.693.708.113 1.295.78 1.15 1.465a.954.954 0 0 1-.35.534.637.637 0 0 1-.204.097.685.685 0 0 0 .197-.49c0-.239-.134-.578-.386-.742a.88.88 0 0 0-.658-.125c-.339.057-.555.13-.79.5-.292.458-.22 1.035-.002 1.406.218.37.54.628.943.756.616.196 1.247.036 1.7-.29a2.25 2.25 0 0 0 .89-1.362c.324-1.53-.852-2.875-2.275-3.101-1.832-.292-3.42 1.135-3.64 2.872-.273 2.139 1.41 3.975 3.46 4.192 2.446.26 4.535-1.68 4.75-4.043.25-2.753-1.947-5.098-4.623-5.31-.056-.01-.107-.006-.16-.007H4.803c-.053-.003-.11.003-.16.007zM2.063 2.748a.685.685 0 0 0-.685.685v1.37c0 .181.073.356.201.484l2.74 2.74c.128.128.302.2.484.2h27.394a.685.685 0 0 0 .485-.2l2.74-2.74a.685.685 0 0 0 .2-.484v-1.37a.685.685 0 0 0-.685-.685H2.063zm.685 1.37h31.504v.4l-2.338 2.34H5.086l-2.338-2.34v-.4zm7.534 9.588a.685.685 0 0 0-.685.685v19.176a.685.685 0 0 0 1.065.57l3.895-2.597a.685.685 0 0 0 .305-.558l.214-12.47V18.5c0-.45 1.377-.462 1.37-.012v10.97a.685.685 0 0 0 1.064.57l4.11-2.74a.685.685 0 0 0 .304-.57V18.5c0-.457 1.37-.457 1.37 0v6.849a.685.685 0 0 0 .991.612l2.74-1.37a.685.685 0 0 0 .379-.612V14.39a.685.685 0 0 0-.685-.685H10.282zm.685 1.37h15.067v8.48l-1.37.684V18.5c0-2.283-4.11-2.283-4.11 0v7.852l-2.739 1.826V18.5v.012c.04-2.29-4.109-2.303-4.109-.012v-.012L13.5 30.6l-2.532 1.689V15.076z"
        fill="#000"></path>
    </g>
    <defs>
      <clipPath id="clip0">
        <path fill="#fff" d="M0 0h37v37H0z"></path>
      </clipPath>
    </defs>
  </symbol>
  <symbol viewBox="0 0 39 38" fill="none" xmlns="http://www.w3.org/2000/svg" id="menu">
    <path d="M6.335 26.866c-2.972 0-5.39 2.41-5.39 5.373 0 2.962 2.418 5.373 5.39 5.373 2.973 0 5.391-2.41 5.391-5.373s-2.418-5.373-5.39-5.373zm0 9.403a4.04 4.04 0 0 1-4.043-4.03 4.04 4.04 0 0 1 4.043-4.03 4.04 4.04 0 0 1 4.043 4.03 4.04 4.04 0 0 1-4.043 4.03zm13.477-9.403c-2.973 0-5.391 2.41-5.391 5.373 0 2.962 2.418 5.373 5.39 5.373 2.973 0 5.392-2.41 5.392-5.373s-2.419-5.373-5.391-5.373zm0 9.403a4.04 4.04 0 0 1-4.044-4.03 4.04 4.04 0 0 1 4.044-4.03 4.04 4.04 0 0 1 4.043 4.03 4.04 4.04 0 0 1-4.043 4.03zm13.477-9.403c-2.972 0-5.39 2.41-5.39 5.373 0 2.962 2.418 5.373 5.39 5.373 2.972 0 5.39-2.41 5.39-5.373s-2.418-5.373-5.39-5.373zm0 9.403a4.04 4.04 0 0 1-4.043-4.03 4.04 4.04 0 0 1 4.043-4.03 4.04 4.04 0 0 1 4.043 4.03 4.04 4.04 0 0 1-4.043 4.03zM6.335 13.433c-2.972 0-5.39 2.41-5.39 5.373s2.418 5.373 5.39 5.373c2.973 0 5.391-2.41 5.391-5.373s-2.418-5.373-5.39-5.373zm0 9.403a4.04 4.04 0 0 1-4.043-4.03 4.04 4.04 0 0 1 4.043-4.03 4.04 4.04 0 0 1 4.043 4.03 4.04 4.04 0 0 1-4.043 4.03zm13.477-9.403c-2.973 0-5.391 2.41-5.391 5.373s2.418 5.373 5.39 5.373c2.973 0 5.392-2.41 5.392-5.373s-2.419-5.373-5.391-5.373zm0 9.403a4.04 4.04 0 0 1-4.044-4.03 4.04 4.04 0 0 1 4.044-4.03 4.04 4.04 0 0 1 4.043 4.03 4.04 4.04 0 0 1-4.043 4.03zm13.477-9.403c-2.972 0-5.39 2.41-5.39 5.373s2.418 5.373 5.39 5.373c2.972 0 5.39-2.41 5.39-5.373s-2.418-5.373-5.39-5.373zm0 9.403a4.04 4.04 0 0 1-4.043-4.03 4.04 4.04 0 0 1 4.043-4.03 4.04 4.04 0 0 1 4.043 4.03 4.04 4.04 0 0 1-4.043 4.03zM6.335 0C3.363 0 .945 2.41.945 5.373s2.418 5.373 5.39 5.373c2.973 0 5.391-2.41 5.391-5.373C11.726 2.411 9.308 0 6.336 0zm0 9.403a4.04 4.04 0 0 1-4.043-4.03 4.04 4.04 0 0 1 4.043-4.03 4.04 4.04 0 0 1 4.043 4.03 4.04 4.04 0 0 1-4.043 4.03zM19.812 0c-2.973 0-5.391 2.41-5.391 5.373s2.418 5.373 5.39 5.373c2.973 0 5.392-2.41 5.392-5.373C25.203 2.411 22.784 0 19.812 0zm0 9.403a4.04 4.04 0 0 1-4.044-4.03 4.04 4.04 0 0 1 4.044-4.03 4.04 4.04 0 0 1 4.043 4.03 4.04 4.04 0 0 1-4.043 4.03zm13.477 1.343c2.972 0 5.39-2.41 5.39-5.373C38.68 2.411 36.262 0 33.29 0c-2.972 0-5.39 2.41-5.39 5.373s2.418 5.373 5.39 5.373zm0-9.403a4.04 4.04 0 0 1 4.043 4.03 4.04 4.04 0 0 1-4.043 4.03 4.04 4.04 0 0 1-4.043-4.03 4.04 4.04 0 0 1 4.043-4.03z"
      opacity=".4" fill="#000"></path>
  </symbol>
  <symbol viewBox="0 0 37 37" fill="none" xmlns="http://www.w3.org/2000/svg" id="pouf">
    <g clip-path="url(#clip0)" fill="#000" opacity=".3">
      <path d="M33.476 7.417L18.833.066a.616.616 0 0 0-.552-.001L3.532 7.418a3.296 3.296 0 0 0-1.836 2.968v17.9c0 .233.132.447.34.551l4.048 2.025.062.022a.424.424 0 0 0 .165.036c.017.001.032.007.049.007l.008-.002a.605.605 0 0 0 .244-.058c.007-.003.016-.002.023-.006l4.047-2.024a.617.617 0 0 0 .341-.552v-3.05l2.813 1.407v7.717c0 .233.132.447.341.551l4.047 2.025a.617.617 0 0 0 .552 0l4.047-2.025a.617.617 0 0 0 .34-.551v-7.717l2.814-1.408v3.051c0 .234.132.448.341.552l4.047 2.025c.008.003.016.002.023.005.076.036.16.056.244.058l.008.002c.017 0 .032-.006.049-.007a.613.613 0 0 0 .1-.014l.127-.044 4.047-2.025a.617.617 0 0 0 .341-.552V10.38a3.297 3.297 0 0 0-1.828-2.963zM9.79 24.91v2.993l-2.814 1.408v-6.103l2.877 1.44a.606.606 0 0 0-.063.262zm8.402 10.628l-3.122-1.562V26.26a.617.617 0 0 0-.341-.552l-8.094-4.05a.617.617 0 0 0-.892.552v7.101l-2.814-1.408V16.461l15.263 7.636v11.442zm0-16.72v3.899L2.929 15.082v-4.696A2.071 2.071 0 0 1 4.082 8.52l14.473-7.215L32.923 8.52c.307.155.571.384.768.666l-13.838 6.943a2.991 2.991 0 0 0-1.661 2.69zm11.832 10.493l-2.814-1.408v-3.287l2.814-1.408v6.103zm4.047-1.408l-2.814 1.408v-7.1a.617.617 0 0 0-.892-.552l-8.094 4.05a.617.617 0 0 0-.34.55v7.717l-3.123 1.562V24.097l15.263-7.636v11.443zm0-12.822l-15.263 7.636v-3.9a2.377 2.377 0 0 1 1.322-2.138l13.837-6.943a2.1 2.1 0 0 1 .104.643v4.702z"></path>
      <path d="M16.614 15.862L5.823 10.463a.308.308 0 1 0-.276.552l10.792 5.399a.307.307 0 0 0 .438-.205.308.308 0 0 0-.163-.347z"></path>
    </g>
    <defs>
      <clipPath id="clip0">
        <path fill="#fff" d="M0 0h37v37H0z"></path>
      </clipPath>
    </defs>
  </symbol>
  <symbol viewBox="0 0 37 37" fill="none" xmlns="http://www.w3.org/2000/svg" id="round-table">
    <path d="M37 9.25C37 4.063 28.873 0 18.5 0S0 4.063 0 9.25c0 2.67 2.158 5.042 5.666 6.716L2.843 35.319a.617.617 0 0 0 1.183.318l7.116-17.873c.982.208 2.012.37 3.078.493l1.2 10.18a.617.617 0 0 0 1.226 0l1.167-9.946.432.005 2.113 17.959a.617.617 0 0 0 1.224 0l2.159-18.32c.93-.133 1.828-.3 2.689-.498l7.161 18a.616.616 0 0 0 1.183-.318L31.91 15.678C35.076 14.026 37 11.771 37 9.25zM4.82 30.307L6.837 16.48c1.007.4 2.04.734 3.091 1L4.82 30.307zm11.213-7.218l-.555-4.708c.364.028.73.054 1.1.071l-.545 4.637zm4.934 8.016l-1.485-12.617a37.535 37.535 0 0 0 2.994-.196l-1.51 12.813zm11.83-.801l-5.166-12.976a23.61 23.61 0 0 0 3.115-1.095l2.052 14.07zM18.5 17.267c-9.36 0-17.267-3.671-17.267-8.017S9.14 1.233 18.5 1.233 35.767 4.904 35.767 9.25 27.86 17.267 18.5 17.267z"
      fill="#000" opacity=".3"></path>
  </symbol>
  <symbol viewBox="0 0 24 22" fill="none" xmlns="http://www.w3.org/2000/svg" id="shopping-cart">
    <path fill-rule="evenodd" clip-rule="evenodd" d="M23.11 4.285a.87.87 0 0 0-.686-.335H5.379L4.595.67A.872.872 0 0 0 3.747 0H.871a.871.871 0 1 0 0 1.743H3.06l2.832 11.85a.871.871 0 0 0 .848.668h13.565c.4 0 .75-.273.845-.661l2.12-8.569a.873.873 0 0 0-.16-.746zm-3.488 8.234H7.427L5.795 5.693h15.516l-1.69 6.826zm-1.177 2.992a2.908 2.908 0 0 0-2.905 2.904 2.908 2.908 0 0 0 2.905 2.905 2.908 2.908 0 0 0 2.904-2.905 2.908 2.908 0 0 0-2.904-2.904zm0 4.066a1.163 1.163 0 0 1 0-2.324 1.163 1.163 0 0 1 0 2.324zM4.996 18.415a2.908 2.908 0 0 1 2.905-2.904 2.908 2.908 0 0 1 2.904 2.904 2.908 2.908 0 0 1-2.904 2.905 2.908 2.908 0 0 1-2.905-2.905zm1.743 0a1.163 1.163 0 0 0 2.323 0 1.163 1.163 0 0 0-2.323 0z"
      fill="#000"></path>
  </symbol>
  <symbol viewBox="0 0 28 38" fill="none" xmlns="http://www.w3.org/2000/svg" id="sleep">
    <g opacity=".3" fill="#000">
      <path d="M27.564 15.84L23.571.413A.552.552 0 0 0 23.036 0H5.226a.553.553 0 0 0-.535.413L3.626 4.526a.552.552 0 1 0 1.07.275l.388-1.495h18.094l2.567 9.917H2.517l1.59-6.147a.552.552 0 1 0-1.07-.275L.698 15.84a.55.55 0 0 0 .536.689H6.42v3.4a1.656 1.656 0 0 0-1.106 1.559 1.658 1.658 0 0 0 3.317 0c0-.719-.462-1.331-1.105-1.559v-3.4h3.315a25.35 25.35 0 0 0-.7 9.33.552.552 0 0 0 1.098-.123c-.345-3.064-.092-6.16.748-9.207h3.949c1.196 4.34 1.194 8.735-.005 13.076h-3.94a25.604 25.604 0 0 1-.379-1.557.553.553 0 0 0-1.082.226c.093.443.2.889.317 1.33h-.18c-2.742 0-4.974 2.225-4.974 4.96v2.203c0 .466.38.845.847.845h15.183a.847.847 0 0 0 .848-.845v-2.204c0-2.734-2.232-4.958-4.975-4.958h-.521a25.29 25.29 0 0 0 .005-13.076h3.658v3.4a1.656 1.656 0 0 0-1.105 1.558 1.658 1.658 0 0 0 3.316 0c0-.718-.462-1.33-1.106-1.558v-3.4h1.077a.552.552 0 1 0 0-1.102H1.946l.285-1.102h23.8l.285 1.102h-1.039a.552.552 0 1 0 0 1.102h1.752a.554.554 0 0 0 .535-.689zM6.972 22.038a.553.553 0 0 1-.553-.55.552.552 0 0 1 1.106 0c0 .303-.248.55-.553.55zm14.492 12.525v1.947H6.797v-1.947a3.867 3.867 0 0 1 3.87-3.856h6.928c2.134 0 3.87 1.73 3.87 3.856zm-.174-12.525a.553.553 0 0 1-.553-.55.553.553 0 0 1 1.106 0c0 .303-.248.55-.553.55zM5.369 2.204l.285-1.102h16.953l.286 1.102H5.369z"></path>
      <path d="M15.105 32.364a.55.55 0 0 0-.083.774c.164.204.251.45.251.713a1.142 1.142 0 0 1-2.284 0c0-.263.087-.51.251-.713a.55.55 0 0 0-.082-.774.554.554 0 0 0-.778.082c-.32.396-.497.895-.497 1.405a2.247 2.247 0 0 0 2.248 2.24 2.247 2.247 0 0 0 2.248-2.24 2.24 2.24 0 0 0-.497-1.405.554.554 0 0 0-.777-.082z"></path>
      <path d="M14.13 34.328a.552.552 0 0 0 .554-.55v-1.984a.552.552 0 1 0-1.106 0v1.983c0 .304.248.551.553.551z"></path>
    </g>
  </symbol>
  <symbol viewBox="0 0 21 21" fill="none" xmlns="http://www.w3.org/2000/svg" id="telephone">
    <path d="M19.975 2.742L17.224 0 11.51 5.704l2.215 2.287c-.37.66-1.176 1.921-2.549 3.294s-2.644 2.187-3.31 2.565l-2.242-2.214L0 17.226l2.736 2.754a3.465 3.465 0 0 0 3.96.675c2.018-.98 5.064-2.79 8.114-5.84 3.05-3.049 4.859-6.095 5.84-8.114.232-.478.345-.991.345-1.501 0-.9-.353-1.79-1.02-2.458zm-.8 3.243c-.926 1.905-2.635 4.783-5.524 7.672-2.889 2.889-5.766 4.598-7.671 5.523a1.824 1.824 0 0 1-2.083-.357l-1.579-1.59 3.31-3.29 1.91 1.886.512-.228c.083-.037 2.06-.931 4.285-3.157 2.228-2.227 3.104-4.187 3.14-4.27l.221-.504-1.885-1.947 3.414-3.408 1.591 1.586c.552.553.696 1.39.359 2.084z"
      fill="#000"></path>
  </symbol>
  <symbol viewBox="0 0 21 21" fill="none" xmlns="http://www.w3.org/2000/svg" id="user-3">
    <path d="M17.925 13.575a10.46 10.46 0 0 0-3.99-2.502A6.068 6.068 0 0 0 16.57 6.07 6.077 6.077 0 0 0 10.5 0a6.077 6.077 0 0 0-6.07 6.07 6.068 6.068 0 0 0 2.635 5.003 10.46 10.46 0 0 0-3.99 2.502A10.431 10.431 0 0 0 0 21h1.64c0-4.885 3.975-8.86 8.86-8.86s8.86 3.975 8.86 8.86H21c0-2.805-1.092-5.441-3.075-7.425zM10.5 10.5a4.435 4.435 0 0 1-4.43-4.43 4.435 4.435 0 0 1 4.43-4.43 4.435 4.435 0 0 1 4.43 4.43 4.435 4.435 0 0 1-4.43 4.43z"
      fill="#000"></path>
  </symbol>
</svg>