<svg width="0" height="0" class="hidden">
  <symbol viewBox="0 0 24 17" fill="none" xmlns="http://www.w3.org/2000/svg" id="email-2">
    <path class="email-2" d="M20.436 0H2.713A2.716 2.716 0 0 0 0 2.713v11.574A2.716 2.716 0 0 0 2.713 17h17.723a2.716 2.716 0 0 0 2.713-2.713V2.713A2.716 2.716 0 0 0 20.436 0zm.904 14.287a.905.905 0 0 1-.904.904H2.713a.905.905 0 0 1-.904-.904V2.713c0-.499.405-.904.904-.904h17.723c.499 0 .904.405.904.904v11.574z"
      fill="currentColor"></path>
    <path class="email-2" d="M21.187 1.127l-9.613 7.15-9.612-7.15L.882 2.58l10.693 7.952L22.266 2.58l-1.08-1.452z" fill="#000"></path>
  </symbol>
  <symbol viewBox="0 0 24 22" fill="none" xmlns="http://www.w3.org/2000/svg" id="shopping-cart">
    <path fill-rule="evenodd" clip-rule="evenodd" d="M23.11 4.285a.87.87 0 0 0-.686-.335H5.379L4.595.67A.872.872 0 0 0 3.747 0H.871a.871.871 0 1 0 0 1.743H3.06l2.832 11.85a.871.871 0 0 0 .848.668h13.565c.4 0 .75-.273.845-.661l2.12-8.569a.873.873 0 0 0-.16-.746zm-3.488 8.234H7.427L5.795 5.693h15.516l-1.69 6.826zm-1.177 2.992a2.908 2.908 0 0 0-2.905 2.904 2.908 2.908 0 0 0 2.905 2.905 2.908 2.908 0 0 0 2.904-2.905 2.908 2.908 0 0 0-2.904-2.904zm0 4.066a1.163 1.163 0 0 1 0-2.324 1.163 1.163 0 0 1 0 2.324zM4.996 18.415a2.908 2.908 0 0 1 2.905-2.904 2.908 2.908 0 0 1 2.904 2.904 2.908 2.908 0 0 1-2.904 2.905 2.908 2.908 0 0 1-2.905-2.905zm1.743 0a1.163 1.163 0 0 0 2.323 0 1.163 1.163 0 0 0-2.323 0z"
      fill="currentColor"></path>
  </symbol>
  <symbol viewBox="0 0 21 21" fill="none" xmlns="http://www.w3.org/2000/svg" id="telephone">
    <path d="M19.975 2.742L17.224 0 11.51 5.704l2.215 2.287c-.37.66-1.176 1.921-2.549 3.294s-2.644 2.187-3.31 2.565l-2.242-2.214L0 17.226l2.736 2.754a3.465 3.465 0 0 0 3.96.675c2.018-.98 5.064-2.79 8.114-5.84 3.05-3.049 4.859-6.095 5.84-8.114.232-.478.345-.991.345-1.501 0-.9-.353-1.79-1.02-2.458zm-.8 3.243c-.926 1.905-2.635 4.783-5.524 7.672-2.889 2.889-5.766 4.598-7.671 5.523a1.824 1.824 0 0 1-2.083-.357l-1.579-1.59 3.31-3.29 1.91 1.886.512-.228c.083-.037 2.06-.931 4.285-3.157 2.228-2.227 3.104-4.187 3.14-4.27l.221-.504-1.885-1.947 3.414-3.408 1.591 1.586c.552.553.696 1.39.359 2.084z"
      fill="#000"></path>
  </symbol>
  <symbol viewBox="0 0 21 21" fill="none" xmlns="http://www.w3.org/2000/svg" id="user-3">
    <path d="M17.925 13.575a10.46 10.46 0 0 0-3.99-2.502A6.068 6.068 0 0 0 16.57 6.07 6.077 6.077 0 0 0 10.5 0a6.077 6.077 0 0 0-6.07 6.07 6.068 6.068 0 0 0 2.635 5.003 10.46 10.46 0 0 0-3.99 2.502A10.431 10.431 0 0 0 0 21h1.64c0-4.885 3.975-8.86 8.86-8.86s8.86 3.975 8.86 8.86H21c0-2.805-1.092-5.441-3.075-7.425zM10.5 10.5a4.435 4.435 0 0 1-4.43-4.43 4.435 4.435 0 0 1 4.43-4.43 4.435 4.435 0 0 1 4.43 4.43 4.435 4.435 0 0 1-4.43 4.43z"
      fill="#000"></path>
  </symbol>
</svg>