<svg width="683" height="1178" viewBox="0 0 683 1178" fill="none" xmlns="http://www.w3.org/2000/svg">
<path opacity="0.6" d="M-235.346 237.06L-302.269 312.573C-344.912 360.688 -372.149 420.484 -380.462 484.236L-384.226 513.095C-386.148 527.834 -385.71 542.784 -382.928 557.384L-378.027 583.111C-363.731 658.156 -283.455 700.505 -213.443 669.936C-142.435 638.933 -61.2017 682.946 -48.3938 759.361L-21.8231 917.89C-2.83763 1031.16 116.94 1097 222.745 1052.32L350.286 998.459C494.21 937.68 455.862 723.949 299.785 716.997C224.833 713.659 164.502 654.262 159.995 579.371L157.133 531.807C154.547 488.836 167.975 446.43 194.824 412.779C250.092 343.508 244.503 243.774 181.841 181.112L165.287 164.557C104.407 103.677 11.429 88.5197 -65.6347 126.912L-139.897 163.908C-176.108 181.948 -208.513 206.783 -235.346 237.06Z" fill="#F5F5F5"/>
</svg>
